<mxfile host="app.diagrams.net" modified="2024-05-24T15:23:50.699Z" agent="Mozilla/5.0 (Windows NT 10.0; Win64; x64) AppleWebKit/537.36 (KHTML, like Gecko) Chrome/125.0.0.0 Safari/537.36" etag="FmfI9LoM0_j7mMMyOm0B" version="24.4.8" type="google">
  <diagram name="Page-1" id="XSDFxck3qQFIzW8iVzFu">
    <mxGraphModel grid="1" page="1" gridSize="10" guides="1" tooltips="1" connect="1" arrows="1" fold="1" pageScale="1" pageWidth="827" pageHeight="1169" math="0" shadow="0">
      <root>
        <mxCell id="0" />
        <mxCell id="1" parent="0" />
        <mxCell id="sHUm1fQLdFRPnQd_kTfl-21" value="" style="rounded=0;whiteSpace=wrap;html=1;fillColor=none;" vertex="1" parent="1">
          <mxGeometry x="5490" y="2860" width="730" height="200" as="geometry" />
        </mxCell>
        <mxCell id="t18dIbclyVpcetWMsr3T-51" value="" style="rounded=0;whiteSpace=wrap;html=1;fillColor=none;dashed=1;dashPattern=12 12;" vertex="1" parent="1">
          <mxGeometry x="3148" y="3771" width="920" height="430" as="geometry" />
        </mxCell>
        <mxCell id="t18dIbclyVpcetWMsr3T-52" value="&lt;font style=&quot;font-size: 20px;&quot;&gt;Система контроля&lt;/font&gt;" style="text;html=1;align=center;verticalAlign=middle;whiteSpace=wrap;rounded=0;" vertex="1" parent="1">
          <mxGeometry x="3507.5" y="3781" width="201" height="20" as="geometry" />
        </mxCell>
        <mxCell id="t18dIbclyVpcetWMsr3T-53" style="edgeStyle=orthogonalEdgeStyle;rounded=0;orthogonalLoop=1;jettySize=auto;html=1;exitX=0.5;exitY=0;exitDx=0;exitDy=0;entryX=0.5;entryY=1;entryDx=0;entryDy=0;" edge="1" parent="1" source="t18dIbclyVpcetWMsr3T-55" target="t18dIbclyVpcetWMsr3T-62">
          <mxGeometry relative="1" as="geometry" />
        </mxCell>
        <mxCell id="t18dIbclyVpcetWMsr3T-54" value="Сигнал&lt;div&gt;управления&lt;/div&gt;" style="edgeLabel;html=1;align=center;verticalAlign=middle;resizable=0;points=[];" connectable="0" vertex="1" parent="t18dIbclyVpcetWMsr3T-53">
          <mxGeometry x="0.1015" relative="1" as="geometry">
            <mxPoint y="3" as="offset" />
          </mxGeometry>
        </mxCell>
        <mxCell id="t18dIbclyVpcetWMsr3T-55" value="Основное поведенческое&lt;div&gt;дерево&lt;/div&gt;" style="rounded=0;whiteSpace=wrap;html=1;movable=1;resizable=1;rotatable=1;deletable=1;editable=1;locked=0;connectable=1;fontStyle=1;container=0;" vertex="1" parent="1">
          <mxGeometry x="3545.386956521739" y="3951.0026315789473" width="125.21739130434783" height="61.578947368421055" as="geometry" />
        </mxCell>
        <mxCell id="t18dIbclyVpcetWMsr3T-56" style="edgeStyle=orthogonalEdgeStyle;rounded=0;orthogonalLoop=1;jettySize=auto;html=1;entryX=0;entryY=0.5;entryDx=0;entryDy=0;" edge="1" parent="1" source="t18dIbclyVpcetWMsr3T-58" target="t18dIbclyVpcetWMsr3T-55">
          <mxGeometry relative="1" as="geometry" />
        </mxCell>
        <mxCell id="t18dIbclyVpcetWMsr3T-57" value="Состояние&lt;div&gt;датчиков&lt;/div&gt;" style="edgeLabel;html=1;align=center;verticalAlign=middle;resizable=0;points=[];" connectable="0" vertex="1" parent="t18dIbclyVpcetWMsr3T-56">
          <mxGeometry x="-0.2554" y="-2" relative="1" as="geometry">
            <mxPoint x="6" y="-2" as="offset" />
          </mxGeometry>
        </mxCell>
        <mxCell id="t18dIbclyVpcetWMsr3T-58" value="Модуль&amp;nbsp;&lt;div&gt;контроля&amp;nbsp;&lt;/div&gt;&lt;div&gt;датчиков&lt;/div&gt;" style="rounded=0;whiteSpace=wrap;html=1;movable=1;resizable=1;rotatable=1;deletable=1;editable=1;locked=0;connectable=1;fontStyle=1;container=0;" vertex="1" parent="1">
          <mxGeometry x="3315.996956521739" y="3951.0026315789473" width="125.21739130434783" height="61.578947368421055" as="geometry" />
        </mxCell>
        <mxCell id="t18dIbclyVpcetWMsr3T-59" style="edgeStyle=orthogonalEdgeStyle;rounded=0;orthogonalLoop=1;jettySize=auto;html=1;exitX=1;exitY=0.75;exitDx=0;exitDy=0;entryX=1;entryY=0.25;entryDx=0;entryDy=0;" edge="1" parent="1" source="t18dIbclyVpcetWMsr3T-62" target="t18dIbclyVpcetWMsr3T-67">
          <mxGeometry relative="1" as="geometry">
            <Array as="points">
              <mxPoint x="3986" y="3877" />
              <mxPoint x="3986" y="4126" />
            </Array>
          </mxGeometry>
        </mxCell>
        <mxCell id="t18dIbclyVpcetWMsr3T-60" value="Сигнал&lt;div&gt;управления&lt;/div&gt;" style="edgeLabel;html=1;align=center;verticalAlign=middle;resizable=0;points=[];" connectable="0" vertex="1" parent="t18dIbclyVpcetWMsr3T-59">
          <mxGeometry x="-0.6019" y="1" relative="1" as="geometry">
            <mxPoint x="-120" y="1" as="offset" />
          </mxGeometry>
        </mxCell>
        <mxCell id="t18dIbclyVpcetWMsr3T-61" style="edgeStyle=orthogonalEdgeStyle;rounded=0;orthogonalLoop=1;jettySize=auto;html=1;exitX=0;exitY=0.5;exitDx=0;exitDy=0;" edge="1" parent="1" source="t18dIbclyVpcetWMsr3T-62" target="t18dIbclyVpcetWMsr3T-72">
          <mxGeometry relative="1" as="geometry" />
        </mxCell>
        <mxCell id="t18dIbclyVpcetWMsr3T-62" value="Модуль переключения управления" style="rounded=0;whiteSpace=wrap;html=1;movable=1;resizable=1;rotatable=1;deletable=1;editable=1;locked=0;connectable=1;fontStyle=1;container=0;" vertex="1" parent="1">
          <mxGeometry x="3545.386956521739" y="3831.0026315789473" width="125.21739130434783" height="61.578947368421055" as="geometry" />
        </mxCell>
        <mxCell id="t18dIbclyVpcetWMsr3T-63" style="edgeStyle=orthogonalEdgeStyle;rounded=0;orthogonalLoop=1;jettySize=auto;html=1;exitX=0;exitY=0.5;exitDx=0;exitDy=0;entryX=1;entryY=0.5;entryDx=0;entryDy=0;" edge="1" parent="1" source="t18dIbclyVpcetWMsr3T-65" target="t18dIbclyVpcetWMsr3T-55">
          <mxGeometry relative="1" as="geometry" />
        </mxCell>
        <mxCell id="t18dIbclyVpcetWMsr3T-64" value="Навигационные&lt;div&gt;сервисы&lt;/div&gt;" style="edgeLabel;html=1;align=center;verticalAlign=middle;resizable=0;points=[];" connectable="0" vertex="1" parent="t18dIbclyVpcetWMsr3T-63">
          <mxGeometry x="0.2402" y="4" relative="1" as="geometry">
            <mxPoint x="13" y="-4" as="offset" />
          </mxGeometry>
        </mxCell>
        <mxCell id="t18dIbclyVpcetWMsr3T-65" value="Модуль&lt;div&gt;навигационных&lt;br&gt;&lt;div&gt;сервисов&lt;/div&gt;&lt;/div&gt;" style="rounded=0;whiteSpace=wrap;html=1;movable=1;resizable=1;rotatable=1;deletable=1;editable=1;locked=0;connectable=1;fontStyle=1;container=0;" vertex="1" parent="1">
          <mxGeometry x="3797.996956521739" y="3951.0026315789473" width="125.21739130434783" height="61.578947368421055" as="geometry" />
        </mxCell>
        <mxCell id="t18dIbclyVpcetWMsr3T-66" value="" style="edgeStyle=orthogonalEdgeStyle;rounded=0;orthogonalLoop=1;jettySize=auto;html=1;" edge="1" parent="1" source="t18dIbclyVpcetWMsr3T-67" target="t18dIbclyVpcetWMsr3T-55">
          <mxGeometry relative="1" as="geometry" />
        </mxCell>
        <mxCell id="t18dIbclyVpcetWMsr3T-67" value="Модуль&amp;nbsp;&lt;div&gt;хранения&amp;nbsp;&lt;/div&gt;&lt;div&gt;данных&lt;/div&gt;" style="rounded=0;whiteSpace=wrap;html=1;movable=1;resizable=1;rotatable=1;deletable=1;editable=1;locked=0;connectable=1;fontStyle=1;container=0;" vertex="1" parent="1">
          <mxGeometry x="3545.3869565217387" y="4111.002631578947" width="125.21739130434783" height="61.578947368421055" as="geometry" />
        </mxCell>
        <mxCell id="t18dIbclyVpcetWMsr3T-68" value="" style="group;fillColor=#75FF83;fillStyle=solid;fontColor=#ffffff;strokeColor=#3700CC;gradientColor=none;" connectable="0" vertex="1" parent="1">
          <mxGeometry x="3782" y="3200" width="170" height="120" as="geometry" />
        </mxCell>
        <mxCell id="t18dIbclyVpcetWMsr3T-69" value="&lt;div&gt;&lt;br&gt;&lt;/div&gt;" style="rounded=0;whiteSpace=wrap;html=1;fontStyle=1" vertex="1" parent="t18dIbclyVpcetWMsr3T-68">
          <mxGeometry width="170" height="120" as="geometry" />
        </mxCell>
        <mxCell id="t18dIbclyVpcetWMsr3T-70" value="&lt;font style=&quot;font-size: 20px;&quot;&gt;SLAM Toolbox&lt;/font&gt;" style="text;html=1;align=center;verticalAlign=middle;whiteSpace=wrap;rounded=0;" vertex="1" parent="t18dIbclyVpcetWMsr3T-68">
          <mxGeometry x="55" y="45" width="60" height="30" as="geometry" />
        </mxCell>
        <mxCell id="t18dIbclyVpcetWMsr3T-71" value="" style="group" connectable="0" vertex="1" parent="1">
          <mxGeometry x="2959" y="3356" width="411.74" height="300" as="geometry" />
        </mxCell>
        <mxCell id="t18dIbclyVpcetWMsr3T-72" value="" style="rounded=0;whiteSpace=wrap;html=1;movable=1;resizable=1;rotatable=1;deletable=1;editable=1;locked=0;connectable=1;container=0;" vertex="1" parent="t18dIbclyVpcetWMsr3T-71">
          <mxGeometry y="50" width="411.74" height="250" as="geometry" />
        </mxCell>
        <mxCell id="t18dIbclyVpcetWMsr3T-73" value="&lt;span style=&quot;font-size: 20px; font-weight: normal;&quot;&gt;Turtlebot3&lt;/span&gt;" style="text;html=1;align=center;verticalAlign=middle;whiteSpace=wrap;rounded=0;movable=1;resizable=1;rotatable=1;deletable=1;editable=1;locked=0;connectable=1;fontStyle=1" vertex="1" parent="t18dIbclyVpcetWMsr3T-71">
          <mxGeometry x="115.87000000000012" y="40" width="180" height="90" as="geometry" />
        </mxCell>
        <mxCell id="t18dIbclyVpcetWMsr3T-74" value="LIDAR" style="rounded=0;whiteSpace=wrap;html=1;movable=1;resizable=1;rotatable=1;deletable=1;editable=1;locked=0;connectable=1;fontStyle=1;container=0;" vertex="1" parent="t18dIbclyVpcetWMsr3T-71">
          <mxGeometry x="7.609130434782628" y="227.8947368421052" width="125.21739130434783" height="61.578947368421055" as="geometry" />
        </mxCell>
        <mxCell id="t18dIbclyVpcetWMsr3T-75" value="Инерциальный измерительный блок" style="rounded=0;whiteSpace=wrap;html=1;movable=1;resizable=1;rotatable=1;deletable=1;editable=1;locked=0;connectable=1;fontStyle=1;container=0;" vertex="1" parent="t18dIbclyVpcetWMsr3T-71">
          <mxGeometry x="143.26130434782613" y="227.8947368421052" width="125.21739130434783" height="61.578947368421055" as="geometry" />
        </mxCell>
        <mxCell id="t18dIbclyVpcetWMsr3T-76" value="Датчик столкновения" style="rounded=0;whiteSpace=wrap;html=1;movable=1;resizable=1;rotatable=1;deletable=1;editable=1;locked=0;connectable=1;fontStyle=1;container=0;" vertex="1" parent="t18dIbclyVpcetWMsr3T-71">
          <mxGeometry x="278.9134782608696" y="227.8947368421052" width="125.21739130434783" height="61.578947368421055" as="geometry" />
        </mxCell>
        <mxCell id="t18dIbclyVpcetWMsr3T-77" value="Контроллер робота" style="rounded=0;whiteSpace=wrap;html=1;movable=1;resizable=1;rotatable=1;deletable=1;editable=1;locked=0;connectable=1;fontStyle=1;container=0;" vertex="1" parent="t18dIbclyVpcetWMsr3T-71">
          <mxGeometry x="143.99695652173915" y="157.0026315789474" width="125.21739130434783" height="61.578947368421055" as="geometry" />
        </mxCell>
        <mxCell id="t18dIbclyVpcetWMsr3T-78" value="" style="group" connectable="0" vertex="1" parent="1">
          <mxGeometry x="3782" y="3405" width="300" height="255" as="geometry" />
        </mxCell>
        <mxCell id="t18dIbclyVpcetWMsr3T-79" style="edgeStyle=orthogonalEdgeStyle;rounded=0;orthogonalLoop=1;jettySize=auto;html=1;exitX=0;exitY=0.75;exitDx=0;exitDy=0;entryX=-0.005;entryY=0.842;entryDx=0;entryDy=0;entryPerimeter=0;" edge="1" parent="t18dIbclyVpcetWMsr3T-78" target="t18dIbclyVpcetWMsr3T-81">
          <mxGeometry relative="1" as="geometry">
            <mxPoint x="-30" y="191" as="targetPoint" />
            <mxPoint x="-334.99997965494777" y="126.333348592123" as="sourcePoint" />
            <Array as="points">
              <mxPoint x="-337" y="126" />
              <mxPoint x="-337" y="215" />
            </Array>
          </mxGeometry>
        </mxCell>
        <mxCell id="t18dIbclyVpcetWMsr3T-81" value="" style="rounded=0;whiteSpace=wrap;html=1;container=0;" vertex="1" parent="t18dIbclyVpcetWMsr3T-78">
          <mxGeometry width="300" height="255" as="geometry" />
        </mxCell>
        <mxCell id="t18dIbclyVpcetWMsr3T-82" value="&lt;span style=&quot;font-weight: normal;&quot;&gt;Nav2&lt;/span&gt;" style="text;html=1;align=center;verticalAlign=middle;whiteSpace=wrap;rounded=0;fontSize=20;fontStyle=1;container=0;" vertex="1" parent="t18dIbclyVpcetWMsr3T-78">
          <mxGeometry x="104.70684039087973" y="9.997948717948702" width="90.58631921824103" height="34.871794871794876" as="geometry" />
        </mxCell>
        <mxCell id="t18dIbclyVpcetWMsr3T-83" value="Сервер&lt;div&gt;планирования&lt;/div&gt;" style="rounded=0;whiteSpace=wrap;html=1;movable=1;resizable=1;rotatable=1;deletable=1;editable=1;locked=0;connectable=1;fontStyle=1;container=0;" vertex="1" parent="t18dIbclyVpcetWMsr3T-78">
          <mxGeometry x="12.386956521739194" y="165.00263157894744" width="125.21739130434783" height="61.578947368421055" as="geometry" />
        </mxCell>
        <mxCell id="t18dIbclyVpcetWMsr3T-84" value="Сервер&lt;div&gt;управления&lt;/div&gt;" style="rounded=0;whiteSpace=wrap;html=1;movable=1;resizable=1;rotatable=1;deletable=1;editable=1;locked=0;connectable=1;fontStyle=1;container=0;" vertex="1" parent="t18dIbclyVpcetWMsr3T-78">
          <mxGeometry x="162.3869565217392" y="165.00263157894733" width="125.21739130434783" height="61.578947368421055" as="geometry" />
        </mxCell>
        <mxCell id="t18dIbclyVpcetWMsr3T-85" value="Сервер&lt;div&gt;навигации&lt;/div&gt;" style="rounded=0;whiteSpace=wrap;html=1;movable=1;resizable=1;rotatable=1;deletable=1;editable=1;locked=0;connectable=1;fontStyle=1;container=0;" vertex="1" parent="t18dIbclyVpcetWMsr3T-78">
          <mxGeometry x="87.3869565217392" y="85.00263157894733" width="125.21739130434783" height="61.578947368421055" as="geometry" />
        </mxCell>
        <mxCell id="t18dIbclyVpcetWMsr3T-86" value="" style="group" connectable="0" vertex="1" parent="1">
          <mxGeometry x="3508" y="3205" width="170" height="120" as="geometry" />
        </mxCell>
        <mxCell id="t18dIbclyVpcetWMsr3T-87" value="&lt;div&gt;&lt;br&gt;&lt;/div&gt;" style="rounded=0;whiteSpace=wrap;html=1;fontStyle=1" vertex="1" parent="t18dIbclyVpcetWMsr3T-86">
          <mxGeometry width="170" height="120" as="geometry" />
        </mxCell>
        <mxCell id="t18dIbclyVpcetWMsr3T-88" value="&lt;font style=&quot;font-size: 20px;&quot;&gt;Map server&lt;/font&gt;" style="text;html=1;align=center;verticalAlign=middle;whiteSpace=wrap;rounded=0;" vertex="1" parent="t18dIbclyVpcetWMsr3T-86">
          <mxGeometry x="55" y="45" width="60" height="30" as="geometry" />
        </mxCell>
        <mxCell id="t18dIbclyVpcetWMsr3T-89" value="" style="group" connectable="0" vertex="1" parent="1">
          <mxGeometry x="3508" y="3465" width="170" height="120" as="geometry" />
        </mxCell>
        <mxCell id="t18dIbclyVpcetWMsr3T-90" value="&lt;div&gt;&lt;br&gt;&lt;/div&gt;" style="rounded=0;whiteSpace=wrap;html=1;fontStyle=1" vertex="1" parent="t18dIbclyVpcetWMsr3T-89">
          <mxGeometry width="170" height="120" as="geometry" />
        </mxCell>
        <mxCell id="t18dIbclyVpcetWMsr3T-91" value="&lt;font style=&quot;font-size: 20px;&quot;&gt;AMCL&lt;/font&gt;" style="text;html=1;align=center;verticalAlign=middle;whiteSpace=wrap;rounded=0;" vertex="1" parent="t18dIbclyVpcetWMsr3T-89">
          <mxGeometry x="55" y="45" width="60" height="30" as="geometry" />
        </mxCell>
        <mxCell id="t18dIbclyVpcetWMsr3T-92" style="edgeStyle=orthogonalEdgeStyle;rounded=0;orthogonalLoop=1;jettySize=auto;html=1;exitX=1;exitY=0.5;exitDx=0;exitDy=0;entryX=-0.005;entryY=0.547;entryDx=0;entryDy=0;entryPerimeter=0;" edge="1" parent="1" source="t18dIbclyVpcetWMsr3T-72" target="t18dIbclyVpcetWMsr3T-90">
          <mxGeometry relative="1" as="geometry" />
        </mxCell>
        <mxCell id="t18dIbclyVpcetWMsr3T-93" value="Данные&lt;div&gt;датчиков&lt;/div&gt;" style="edgeLabel;html=1;align=center;verticalAlign=middle;resizable=0;points=[];" connectable="0" vertex="1" parent="t18dIbclyVpcetWMsr3T-92">
          <mxGeometry x="0.2201" relative="1" as="geometry">
            <mxPoint x="-49" y="-1" as="offset" />
          </mxGeometry>
        </mxCell>
        <mxCell id="t18dIbclyVpcetWMsr3T-94" style="edgeStyle=orthogonalEdgeStyle;rounded=0;orthogonalLoop=1;jettySize=auto;html=1;exitX=0.5;exitY=1;exitDx=0;exitDy=0;entryX=0.5;entryY=0;entryDx=0;entryDy=0;" edge="1" parent="1" source="t18dIbclyVpcetWMsr3T-87" target="t18dIbclyVpcetWMsr3T-90">
          <mxGeometry relative="1" as="geometry" />
        </mxCell>
        <mxCell id="t18dIbclyVpcetWMsr3T-95" style="edgeStyle=orthogonalEdgeStyle;rounded=0;orthogonalLoop=1;jettySize=auto;html=1;exitX=0.75;exitY=1;exitDx=0;exitDy=0;entryX=-0.002;entryY=0.126;entryDx=0;entryDy=0;entryPerimeter=0;" edge="1" parent="1" source="t18dIbclyVpcetWMsr3T-87" target="t18dIbclyVpcetWMsr3T-81">
          <mxGeometry relative="1" as="geometry" />
        </mxCell>
        <mxCell id="t18dIbclyVpcetWMsr3T-96" style="edgeStyle=orthogonalEdgeStyle;rounded=0;orthogonalLoop=1;jettySize=auto;html=1;exitX=1;exitY=0.5;exitDx=0;exitDy=0;entryX=-0.002;entryY=0.468;entryDx=0;entryDy=0;entryPerimeter=0;" edge="1" parent="1" source="t18dIbclyVpcetWMsr3T-90" target="t18dIbclyVpcetWMsr3T-81">
          <mxGeometry relative="1" as="geometry" />
        </mxCell>
        <mxCell id="t18dIbclyVpcetWMsr3T-97" value="Положение&lt;div&gt;робота&lt;/div&gt;" style="edgeLabel;html=1;align=center;verticalAlign=middle;resizable=0;points=[];" connectable="0" vertex="1" parent="t18dIbclyVpcetWMsr3T-96">
          <mxGeometry x="-0.0437" y="-1" relative="1" as="geometry">
            <mxPoint as="offset" />
          </mxGeometry>
        </mxCell>
        <mxCell id="t18dIbclyVpcetWMsr3T-98" style="edgeStyle=orthogonalEdgeStyle;rounded=0;orthogonalLoop=1;jettySize=auto;html=1;exitX=0;exitY=0.5;exitDx=0;exitDy=0;entryX=0.996;entryY=0.454;entryDx=0;entryDy=0;entryPerimeter=0;dashed=1;dashPattern=8 8;" edge="1" parent="1" source="t18dIbclyVpcetWMsr3T-69" target="t18dIbclyVpcetWMsr3T-87">
          <mxGeometry relative="1" as="geometry" />
        </mxCell>
        <mxCell id="t18dIbclyVpcetWMsr3T-99" value="Карта&lt;div&gt;занятости&lt;/div&gt;" style="edgeLabel;html=1;align=center;verticalAlign=middle;resizable=0;points=[];" connectable="0" vertex="1" parent="t18dIbclyVpcetWMsr3T-98">
          <mxGeometry x="0.0972" y="2" relative="1" as="geometry">
            <mxPoint x="7" y="-1" as="offset" />
          </mxGeometry>
        </mxCell>
        <mxCell id="t18dIbclyVpcetWMsr3T-100" value="Карта&lt;div&gt;занятости&lt;/div&gt;" style="edgeLabel;html=1;align=center;verticalAlign=middle;resizable=0;points=[];" connectable="0" vertex="1" parent="1">
          <mxGeometry x="3590.999391287984" y="3361.9980206138234" as="geometry" />
        </mxCell>
        <mxCell id="t18dIbclyVpcetWMsr3T-101" value="Карта&lt;div&gt;занятости&lt;/div&gt;" style="edgeLabel;html=1;align=center;verticalAlign=middle;resizable=0;points=[];" connectable="0" vertex="1" parent="1">
          <mxGeometry x="3635.999391287984" y="3390.9980206138234" as="geometry" />
        </mxCell>
        <mxCell id="t18dIbclyVpcetWMsr3T-103" style="edgeStyle=orthogonalEdgeStyle;rounded=0;orthogonalLoop=1;jettySize=auto;html=1;exitX=0.25;exitY=1;exitDx=0;exitDy=0;entryX=1;entryY=0.25;entryDx=0;entryDy=0;" edge="1" parent="1" source="t18dIbclyVpcetWMsr3T-81" target="t18dIbclyVpcetWMsr3T-62">
          <mxGeometry relative="1" as="geometry">
            <Array as="points">
              <mxPoint x="3910" y="3660" />
              <mxPoint x="3910" y="3846" />
            </Array>
          </mxGeometry>
        </mxCell>
        <mxCell id="t18dIbclyVpcetWMsr3T-104" value="Сигнал&lt;div&gt;управления&lt;/div&gt;" style="edgeLabel;html=1;align=center;verticalAlign=middle;resizable=0;points=[];" connectable="0" vertex="1" parent="t18dIbclyVpcetWMsr3T-103">
          <mxGeometry x="0.0105" y="-1" relative="1" as="geometry">
            <mxPoint y="-153" as="offset" />
          </mxGeometry>
        </mxCell>
        <mxCell id="t18dIbclyVpcetWMsr3T-105" value="Карты&lt;div&gt;Сигналы управления&lt;/div&gt;&lt;div&gt;Данные датчиков&lt;/div&gt;&lt;div&gt;Положение робота&lt;/div&gt;" style="edgeLabel;html=1;align=center;verticalAlign=middle;resizable=0;points=[];" connectable="0" vertex="1" parent="1">
          <mxGeometry x="3613.995652173913" y="4060.004984520124" as="geometry">
            <mxPoint x="-8" y="4" as="offset" />
          </mxGeometry>
        </mxCell>
        <mxCell id="t18dIbclyVpcetWMsr3T-106" value="Сигнал&lt;div&gt;управления&lt;/div&gt;" style="edgeLabel;html=1;align=center;verticalAlign=middle;resizable=0;points=[];" connectable="0" vertex="1" parent="1">
          <mxGeometry x="3667.9965478287654" y="3705.0016238684084" as="geometry">
            <mxPoint x="-506" y="-13" as="offset" />
          </mxGeometry>
        </mxCell>
        <mxCell id="t18dIbclyVpcetWMsr3T-107" style="edgeStyle=orthogonalEdgeStyle;rounded=0;orthogonalLoop=1;jettySize=auto;html=1;exitX=0.5;exitY=1;exitDx=0;exitDy=0;entryX=0.5;entryY=0;entryDx=0;entryDy=0;" edge="1" parent="1" source="t18dIbclyVpcetWMsr3T-90" target="t18dIbclyVpcetWMsr3T-65">
          <mxGeometry relative="1" as="geometry">
            <Array as="points">
              <mxPoint x="3593" y="3728" />
              <mxPoint x="3861" y="3728" />
            </Array>
          </mxGeometry>
        </mxCell>
        <mxCell id="t18dIbclyVpcetWMsr3T-108" value="Положение&lt;div&gt;робота&lt;/div&gt;" style="edgeLabel;html=1;align=center;verticalAlign=middle;resizable=0;points=[];" connectable="0" vertex="1" parent="1">
          <mxGeometry x="3711.001764705882" y="3525.000000000001" as="geometry">
            <mxPoint x="-119" y="125" as="offset" />
          </mxGeometry>
        </mxCell>
        <mxCell id="t18dIbclyVpcetWMsr3T-109" style="edgeStyle=orthogonalEdgeStyle;rounded=0;orthogonalLoop=1;jettySize=auto;html=1;exitX=0.75;exitY=1;exitDx=0;exitDy=0;entryX=1;entryY=0.5;entryDx=0;entryDy=0;" edge="1" parent="1" source="t18dIbclyVpcetWMsr3T-90" target="t18dIbclyVpcetWMsr3T-67">
          <mxGeometry relative="1" as="geometry">
            <Array as="points">
              <mxPoint x="3636" y="3718" />
              <mxPoint x="4094" y="3718" />
              <mxPoint x="4094" y="4142" />
            </Array>
          </mxGeometry>
        </mxCell>
        <mxCell id="t18dIbclyVpcetWMsr3T-110" value="Положение&lt;div&gt;робота&lt;/div&gt;" style="edgeLabel;html=1;align=center;verticalAlign=middle;resizable=0;points=[];" connectable="0" vertex="1" parent="1">
          <mxGeometry x="3752.001764705882" y="3562.000000000001" as="geometry">
            <mxPoint x="-119" y="125" as="offset" />
          </mxGeometry>
        </mxCell>
        <mxCell id="t18dIbclyVpcetWMsr3T-111" style="edgeStyle=orthogonalEdgeStyle;rounded=0;orthogonalLoop=1;jettySize=auto;html=1;exitX=0.75;exitY=1;exitDx=0;exitDy=0;entryX=1;entryY=0.5;entryDx=0;entryDy=0;" edge="1" parent="1" source="t18dIbclyVpcetWMsr3T-81" target="t18dIbclyVpcetWMsr3T-65">
          <mxGeometry relative="1" as="geometry" />
        </mxCell>
        <mxCell id="t18dIbclyVpcetWMsr3T-112" value="Данные&lt;div&gt;о навигации&lt;/div&gt;" style="edgeLabel;html=1;align=center;verticalAlign=middle;resizable=0;points=[];" connectable="0" vertex="1" parent="t18dIbclyVpcetWMsr3T-111">
          <mxGeometry x="-0.8587" relative="1" as="geometry">
            <mxPoint as="offset" />
          </mxGeometry>
        </mxCell>
        <mxCell id="t18dIbclyVpcetWMsr3T-113" style="edgeStyle=orthogonalEdgeStyle;rounded=0;orthogonalLoop=1;jettySize=auto;html=1;exitX=0.75;exitY=1;exitDx=0;exitDy=0;entryX=0;entryY=0.5;entryDx=0;entryDy=0;" edge="1" parent="1" source="t18dIbclyVpcetWMsr3T-72" target="t18dIbclyVpcetWMsr3T-58">
          <mxGeometry relative="1" as="geometry" />
        </mxCell>
        <mxCell id="t18dIbclyVpcetWMsr3T-114" value="Данные&lt;div&gt;датчиков&lt;/div&gt;" style="edgeLabel;html=1;align=center;verticalAlign=middle;resizable=0;points=[];" connectable="0" vertex="1" parent="1">
          <mxGeometry x="3265.9964705093" y="3688.995542513156" as="geometry" />
        </mxCell>
        <mxCell id="t18dIbclyVpcetWMsr3T-115" style="edgeStyle=orthogonalEdgeStyle;rounded=0;orthogonalLoop=1;jettySize=auto;html=1;exitX=0.25;exitY=1;exitDx=0;exitDy=0;entryX=0;entryY=0.25;entryDx=0;entryDy=0;" edge="1" parent="1" source="t18dIbclyVpcetWMsr3T-72" target="t18dIbclyVpcetWMsr3T-67">
          <mxGeometry relative="1" as="geometry" />
        </mxCell>
        <mxCell id="t18dIbclyVpcetWMsr3T-116" value="Данные&lt;div&gt;датчиков&lt;/div&gt;" style="edgeLabel;html=1;align=center;verticalAlign=middle;resizable=0;points=[];" connectable="0" vertex="1" parent="1">
          <mxGeometry x="3058.9964705093" y="3685.995542513156" as="geometry" />
        </mxCell>
        <mxCell id="t18dIbclyVpcetWMsr3T-117" style="edgeStyle=orthogonalEdgeStyle;rounded=0;orthogonalLoop=1;jettySize=auto;html=1;exitX=0;exitY=0.5;exitDx=0;exitDy=0;entryX=0;entryY=0.5;entryDx=0;entryDy=0;" edge="1" parent="1" source="t18dIbclyVpcetWMsr3T-87" target="t18dIbclyVpcetWMsr3T-67">
          <mxGeometry relative="1" as="geometry">
            <Array as="points">
              <mxPoint x="2940" y="3265" />
              <mxPoint x="2940" y="4142" />
            </Array>
          </mxGeometry>
        </mxCell>
        <mxCell id="t18dIbclyVpcetWMsr3T-118" value="Карта&lt;div&gt;занятости&lt;/div&gt;" style="edgeLabel;html=1;align=center;verticalAlign=middle;resizable=0;points=[];" connectable="0" vertex="1" parent="1">
          <mxGeometry x="3465.999391287984" y="3264.9980206138234" as="geometry" />
        </mxCell>
        <mxCell id="t18dIbclyVpcetWMsr3T-120" style="edgeStyle=orthogonalEdgeStyle;rounded=0;orthogonalLoop=1;jettySize=auto;html=1;exitX=0.75;exitY=0;exitDx=0;exitDy=0;entryX=0.75;entryY=0;entryDx=0;entryDy=0;" edge="1" parent="1">
          <mxGeometry relative="1" as="geometry">
            <mxPoint x="4050.42" y="3405" as="targetPoint" />
            <mxPoint x="4049.998947368422" y="3320" as="sourcePoint" />
          </mxGeometry>
        </mxCell>
        <mxCell id="t18dIbclyVpcetWMsr3T-121" value="Цель&lt;br&gt;навигации" style="edgeLabel;html=1;align=center;verticalAlign=middle;resizable=0;points=[];" connectable="0" vertex="1" parent="t18dIbclyVpcetWMsr3T-120">
          <mxGeometry x="-0.6947" y="-1" relative="1" as="geometry">
            <mxPoint y="-32" as="offset" />
          </mxGeometry>
        </mxCell>
        <mxCell id="t18dIbclyVpcetWMsr3T-122" value="" style="rounded=0;whiteSpace=wrap;html=1;fillColor=none;dashed=1;dashPattern=12 12;" vertex="1" parent="1">
          <mxGeometry x="4187.3099999999995" y="3308.75" width="342.39" height="432.5" as="geometry" />
        </mxCell>
        <mxCell id="t18dIbclyVpcetWMsr3T-123" style="edgeStyle=orthogonalEdgeStyle;rounded=0;orthogonalLoop=1;jettySize=auto;html=1;exitX=0.5;exitY=1;exitDx=0;exitDy=0;entryX=0.5;entryY=0;entryDx=0;entryDy=0;" edge="1" parent="1" source="t18dIbclyVpcetWMsr3T-125" target="t18dIbclyVpcetWMsr3T-128">
          <mxGeometry relative="1" as="geometry" />
        </mxCell>
        <mxCell id="t18dIbclyVpcetWMsr3T-124" value="Обнаруженные&lt;div&gt;динамические объекты&lt;/div&gt;" style="edgeLabel;html=1;align=center;verticalAlign=middle;resizable=0;points=[];" connectable="0" vertex="1" parent="t18dIbclyVpcetWMsr3T-123">
          <mxGeometry x="-0.0109" y="1" relative="1" as="geometry">
            <mxPoint x="-1" y="-6" as="offset" />
          </mxGeometry>
        </mxCell>
        <mxCell id="t18dIbclyVpcetWMsr3T-125" value="Модуль обнаружения" style="rounded=0;whiteSpace=wrap;html=1;movable=1;resizable=1;rotatable=1;deletable=1;editable=1;locked=0;connectable=1;fontStyle=1;container=0;" vertex="1" parent="1">
          <mxGeometry x="4299.696956521739" y="3395.9226315789474" width="125.21739130434783" height="61.578947368421055" as="geometry" />
        </mxCell>
        <mxCell id="t18dIbclyVpcetWMsr3T-126" style="edgeStyle=orthogonalEdgeStyle;rounded=0;orthogonalLoop=1;jettySize=auto;html=1;exitX=0.5;exitY=1;exitDx=0;exitDy=0;entryX=0.5;entryY=0;entryDx=0;entryDy=0;" edge="1" parent="1" source="t18dIbclyVpcetWMsr3T-128" target="t18dIbclyVpcetWMsr3T-131">
          <mxGeometry relative="1" as="geometry" />
        </mxCell>
        <mxCell id="t18dIbclyVpcetWMsr3T-127" value="Отслеживаемые&lt;div&gt;динамические объекты&lt;/div&gt;" style="edgeLabel;html=1;align=center;verticalAlign=middle;resizable=0;points=[];" connectable="0" vertex="1" parent="t18dIbclyVpcetWMsr3T-126">
          <mxGeometry x="-0.054" y="1" relative="1" as="geometry">
            <mxPoint as="offset" />
          </mxGeometry>
        </mxCell>
        <mxCell id="t18dIbclyVpcetWMsr3T-128" value="Модуль слежения и оценки" style="rounded=0;whiteSpace=wrap;html=1;movable=1;resizable=1;rotatable=1;deletable=1;editable=1;locked=0;connectable=1;fontStyle=1;container=0;" vertex="1" parent="1">
          <mxGeometry x="4299.696956521739" y="3523.2126315789474" width="125.21739130434783" height="61.578947368421055" as="geometry" />
        </mxCell>
        <mxCell id="t18dIbclyVpcetWMsr3T-129" style="edgeStyle=orthogonalEdgeStyle;rounded=0;orthogonalLoop=1;jettySize=auto;html=1;exitX=0;exitY=0.5;exitDx=0;exitDy=0;entryX=1;entryY=0.75;entryDx=0;entryDy=0;" edge="1" parent="1" source="t18dIbclyVpcetWMsr3T-131">
          <mxGeometry relative="1" as="geometry">
            <Array as="points">
              <mxPoint x="4174" y="3685.75" />
              <mxPoint x="4174" y="3601.75" />
            </Array>
            <mxPoint x="4082" y="3601.75" as="targetPoint" />
          </mxGeometry>
        </mxCell>
        <mxCell id="t18dIbclyVpcetWMsr3T-130" value="Слой для&lt;div&gt;карты&lt;/div&gt;&lt;div&gt;стоимости&lt;/div&gt;" style="edgeLabel;html=1;align=center;verticalAlign=middle;resizable=0;points=[];" connectable="0" vertex="1" parent="t18dIbclyVpcetWMsr3T-129">
          <mxGeometry x="0.5467" relative="1" as="geometry">
            <mxPoint x="-18" y="1" as="offset" />
          </mxGeometry>
        </mxCell>
        <mxCell id="t18dIbclyVpcetWMsr3T-131" value="Модуль создания слоя" style="rounded=0;whiteSpace=wrap;html=1;movable=1;resizable=1;rotatable=1;deletable=1;editable=1;locked=0;connectable=1;fontStyle=1;container=0;" vertex="1" parent="1">
          <mxGeometry x="4299.696956521739" y="3655.0026315789473" width="125.21739130434783" height="61.578947368421055" as="geometry" />
        </mxCell>
        <mxCell id="t18dIbclyVpcetWMsr3T-132" value="&lt;font style=&quot;font-size: 20px;&quot;&gt;Система учета динамических объектов&lt;/font&gt;" style="text;html=1;align=center;verticalAlign=middle;whiteSpace=wrap;rounded=0;" vertex="1" parent="1">
          <mxGeometry x="4228.360000000001" y="3321.25" width="267.89" height="40" as="geometry" />
        </mxCell>
        <mxCell id="t18dIbclyVpcetWMsr3T-133" style="edgeStyle=orthogonalEdgeStyle;rounded=0;orthogonalLoop=1;jettySize=auto;html=1;exitX=1;exitY=0.25;exitDx=0;exitDy=0;entryX=0;entryY=0.5;entryDx=0;entryDy=0;" edge="1" parent="1" target="t18dIbclyVpcetWMsr3T-125">
          <mxGeometry relative="1" as="geometry">
            <Array as="points">
              <mxPoint x="4171" y="3474.75" />
              <mxPoint x="4171" y="3426.75" />
            </Array>
            <mxPoint x="4082" y="3474.75" as="sourcePoint" />
          </mxGeometry>
        </mxCell>
        <mxCell id="t18dIbclyVpcetWMsr3T-134" value="Карта&lt;div&gt;стоимости&lt;/div&gt;" style="edgeLabel;html=1;align=center;verticalAlign=middle;resizable=0;points=[];" connectable="0" vertex="1" parent="t18dIbclyVpcetWMsr3T-133">
          <mxGeometry x="-0.5246" y="1" relative="1" as="geometry">
            <mxPoint x="-17" as="offset" />
          </mxGeometry>
        </mxCell>
        <mxCell id="sHUm1fQLdFRPnQd_kTfl-17" style="edgeStyle=orthogonalEdgeStyle;rounded=0;orthogonalLoop=1;jettySize=auto;html=1;" edge="1" parent="1" source="sHUm1fQLdFRPnQd_kTfl-14" target="sHUm1fQLdFRPnQd_kTfl-15">
          <mxGeometry relative="1" as="geometry" />
        </mxCell>
        <mxCell id="sHUm1fQLdFRPnQd_kTfl-29" style="edgeStyle=orthogonalEdgeStyle;rounded=0;orthogonalLoop=1;jettySize=auto;html=1;" edge="1" parent="1" target="sHUm1fQLdFRPnQd_kTfl-14">
          <mxGeometry relative="1" as="geometry">
            <mxPoint x="5410" y="2990" as="sourcePoint" />
          </mxGeometry>
        </mxCell>
        <mxCell id="sHUm1fQLdFRPnQd_kTfl-14" value="Модуль обнаружения" style="rounded=0;whiteSpace=wrap;html=1;movable=1;resizable=1;rotatable=1;deletable=1;editable=1;locked=0;connectable=1;fontStyle=1;container=0;" vertex="1" parent="1">
          <mxGeometry x="5509.996956521739" y="2960.0026315789473" width="125.21739130434783" height="61.578947368421055" as="geometry" />
        </mxCell>
        <mxCell id="sHUm1fQLdFRPnQd_kTfl-20" style="edgeStyle=orthogonalEdgeStyle;rounded=0;orthogonalLoop=1;jettySize=auto;html=1;" edge="1" parent="1" source="sHUm1fQLdFRPnQd_kTfl-15" target="sHUm1fQLdFRPnQd_kTfl-19">
          <mxGeometry relative="1" as="geometry" />
        </mxCell>
        <mxCell id="sHUm1fQLdFRPnQd_kTfl-15" value="Модуль слежения и оценки" style="rounded=0;whiteSpace=wrap;html=1;movable=1;resizable=1;rotatable=1;deletable=1;editable=1;locked=0;connectable=1;fontStyle=1;container=0;" vertex="1" parent="1">
          <mxGeometry x="5799.996956521739" y="2960.0026315789473" width="125.21739130434783" height="61.578947368421055" as="geometry" />
        </mxCell>
        <mxCell id="sHUm1fQLdFRPnQd_kTfl-16" value="Обнаруженные&lt;div&gt;динамические объекты&lt;/div&gt;" style="edgeLabel;html=1;align=center;verticalAlign=middle;resizable=0;points=[];" connectable="0" vertex="1" parent="1">
          <mxGeometry x="5719.995652173912" y="2990.791578947368" as="geometry" />
        </mxCell>
        <mxCell id="sHUm1fQLdFRPnQd_kTfl-18" value="Отслеживаемые&lt;div&gt;динамические объекты&lt;/div&gt;" style="edgeLabel;html=1;align=center;verticalAlign=middle;resizable=0;points=[];" connectable="0" vertex="1" parent="1">
          <mxGeometry x="5699.995652173912" y="3080.004912280702" as="geometry">
            <mxPoint x="293" y="-85" as="offset" />
          </mxGeometry>
        </mxCell>
        <mxCell id="sHUm1fQLdFRPnQd_kTfl-30" style="edgeStyle=orthogonalEdgeStyle;rounded=0;orthogonalLoop=1;jettySize=auto;html=1;" edge="1" parent="1" source="sHUm1fQLdFRPnQd_kTfl-19">
          <mxGeometry relative="1" as="geometry">
            <mxPoint x="6320" y="2991" as="targetPoint" />
          </mxGeometry>
        </mxCell>
        <mxCell id="sHUm1fQLdFRPnQd_kTfl-19" value="Модуль отображения" style="rounded=0;whiteSpace=wrap;html=1;movable=1;resizable=1;rotatable=1;deletable=1;editable=1;locked=0;connectable=1;fontStyle=1;container=0;" vertex="1" parent="1">
          <mxGeometry x="6069.996956521739" y="2960.0026315789473" width="125.21739130434783" height="61.578947368421055" as="geometry" />
        </mxCell>
        <mxCell id="sHUm1fQLdFRPnQd_kTfl-22" value="&lt;font style=&quot;font-size: 20px;&quot;&gt;Система учета динамических объектов&lt;/font&gt;" style="text;html=1;align=center;verticalAlign=middle;whiteSpace=wrap;rounded=0;" vertex="1" parent="1">
          <mxGeometry x="5721.050000000001" y="2883" width="267.89" height="40" as="geometry" />
        </mxCell>
        <mxCell id="sHUm1fQLdFRPnQd_kTfl-28" value="Карта&lt;div&gt;стоимости&lt;/div&gt;" style="edgeLabel;html=1;align=center;verticalAlign=middle;resizable=0;points=[];" connectable="0" vertex="1" parent="1">
          <mxGeometry x="5450" y="2990.79" as="geometry" />
        </mxCell>
        <mxCell id="sHUm1fQLdFRPnQd_kTfl-31" value="Слой для&lt;div&gt;карты&lt;/div&gt;&lt;div&gt;стоимости&lt;/div&gt;" style="edgeLabel;html=1;align=center;verticalAlign=middle;resizable=0;points=[];" connectable="0" vertex="1" parent="1">
          <mxGeometry x="6249.996666666666" y="3000" as="geometry">
            <mxPoint x="15" y="-6" as="offset" />
          </mxGeometry>
        </mxCell>
        <mxCell id="ztMUQmSmxL0yscb2b9xA-1" value="" style="rounded=0;whiteSpace=wrap;html=1;fillColor=none;dashed=1;dashPattern=12 12;" vertex="1" parent="1">
          <mxGeometry x="3108.14" y="5071" width="920" height="419" as="geometry" />
        </mxCell>
        <mxCell id="ztMUQmSmxL0yscb2b9xA-2" value="&lt;font style=&quot;font-size: 20px;&quot;&gt;Система контроля&lt;/font&gt;" style="text;html=1;align=center;verticalAlign=middle;whiteSpace=wrap;rounded=0;" vertex="1" parent="1">
          <mxGeometry x="3467.64" y="5081" width="201" height="20" as="geometry" />
        </mxCell>
        <mxCell id="ztMUQmSmxL0yscb2b9xA-3" style="edgeStyle=orthogonalEdgeStyle;rounded=0;orthogonalLoop=1;jettySize=auto;html=1;exitX=0.5;exitY=0;exitDx=0;exitDy=0;entryX=0.5;entryY=1;entryDx=0;entryDy=0;" edge="1" parent="1" source="ztMUQmSmxL0yscb2b9xA-5" target="ztMUQmSmxL0yscb2b9xA-12">
          <mxGeometry relative="1" as="geometry" />
        </mxCell>
        <mxCell id="ztMUQmSmxL0yscb2b9xA-4" value="Сигнал&lt;div&gt;управления&lt;/div&gt;" style="edgeLabel;html=1;align=center;verticalAlign=middle;resizable=0;points=[];" connectable="0" vertex="1" parent="ztMUQmSmxL0yscb2b9xA-3">
          <mxGeometry x="0.1015" relative="1" as="geometry">
            <mxPoint y="3" as="offset" />
          </mxGeometry>
        </mxCell>
        <mxCell id="ztMUQmSmxL0yscb2b9xA-5" value="Основное поведенческое&lt;div&gt;дерево&lt;/div&gt;" style="rounded=0;whiteSpace=wrap;html=1;movable=1;resizable=1;rotatable=1;deletable=1;editable=1;locked=0;connectable=1;fontStyle=1;container=0;" vertex="1" parent="1">
          <mxGeometry x="3505.526956521739" y="5251.002631578947" width="125.21739130434783" height="61.578947368421055" as="geometry" />
        </mxCell>
        <mxCell id="ztMUQmSmxL0yscb2b9xA-6" style="edgeStyle=orthogonalEdgeStyle;rounded=0;orthogonalLoop=1;jettySize=auto;html=1;entryX=0;entryY=0.5;entryDx=0;entryDy=0;" edge="1" parent="1" source="ztMUQmSmxL0yscb2b9xA-8" target="ztMUQmSmxL0yscb2b9xA-5">
          <mxGeometry relative="1" as="geometry" />
        </mxCell>
        <mxCell id="ztMUQmSmxL0yscb2b9xA-7" value="Состояние&lt;div&gt;датчиков&lt;/div&gt;" style="edgeLabel;html=1;align=center;verticalAlign=middle;resizable=0;points=[];" connectable="0" vertex="1" parent="ztMUQmSmxL0yscb2b9xA-6">
          <mxGeometry x="-0.2554" y="-2" relative="1" as="geometry">
            <mxPoint x="6" y="-2" as="offset" />
          </mxGeometry>
        </mxCell>
        <mxCell id="ztMUQmSmxL0yscb2b9xA-8" value="Модуль&amp;nbsp;&lt;div&gt;контроля&amp;nbsp;&lt;/div&gt;&lt;div&gt;датчиков&lt;/div&gt;" style="rounded=0;whiteSpace=wrap;html=1;movable=1;resizable=1;rotatable=1;deletable=1;editable=1;locked=0;connectable=1;fontStyle=1;container=0;" vertex="1" parent="1">
          <mxGeometry x="3276.1369565217387" y="5251.002631578947" width="125.21739130434783" height="61.578947368421055" as="geometry" />
        </mxCell>
        <mxCell id="ztMUQmSmxL0yscb2b9xA-9" style="edgeStyle=orthogonalEdgeStyle;rounded=0;orthogonalLoop=1;jettySize=auto;html=1;exitX=1;exitY=0.75;exitDx=0;exitDy=0;entryX=1;entryY=0.25;entryDx=0;entryDy=0;" edge="1" parent="1" source="ztMUQmSmxL0yscb2b9xA-12" target="ztMUQmSmxL0yscb2b9xA-17">
          <mxGeometry relative="1" as="geometry">
            <Array as="points">
              <mxPoint x="3946.14" y="5177" />
              <mxPoint x="3946.14" y="5426" />
            </Array>
          </mxGeometry>
        </mxCell>
        <mxCell id="ztMUQmSmxL0yscb2b9xA-10" value="Сигнал&lt;div&gt;управления&lt;/div&gt;" style="edgeLabel;html=1;align=center;verticalAlign=middle;resizable=0;points=[];" connectable="0" vertex="1" parent="ztMUQmSmxL0yscb2b9xA-9">
          <mxGeometry x="-0.6019" y="1" relative="1" as="geometry">
            <mxPoint x="-120" y="1" as="offset" />
          </mxGeometry>
        </mxCell>
        <mxCell id="ztMUQmSmxL0yscb2b9xA-11" style="edgeStyle=orthogonalEdgeStyle;rounded=0;orthogonalLoop=1;jettySize=auto;html=1;exitX=0;exitY=0.5;exitDx=0;exitDy=0;" edge="1" parent="1" source="ztMUQmSmxL0yscb2b9xA-12" target="ztMUQmSmxL0yscb2b9xA-22">
          <mxGeometry relative="1" as="geometry" />
        </mxCell>
        <mxCell id="ztMUQmSmxL0yscb2b9xA-12" value="Модуль переключения управления" style="rounded=0;whiteSpace=wrap;html=1;movable=1;resizable=1;rotatable=1;deletable=1;editable=1;locked=0;connectable=1;fontStyle=1;container=0;" vertex="1" parent="1">
          <mxGeometry x="3505.526956521739" y="5131.002631578947" width="125.21739130434783" height="61.578947368421055" as="geometry" />
        </mxCell>
        <mxCell id="ztMUQmSmxL0yscb2b9xA-13" style="edgeStyle=orthogonalEdgeStyle;rounded=0;orthogonalLoop=1;jettySize=auto;html=1;exitX=0;exitY=0.5;exitDx=0;exitDy=0;entryX=1;entryY=0.5;entryDx=0;entryDy=0;" edge="1" parent="1" source="ztMUQmSmxL0yscb2b9xA-15" target="ztMUQmSmxL0yscb2b9xA-5">
          <mxGeometry relative="1" as="geometry" />
        </mxCell>
        <mxCell id="ztMUQmSmxL0yscb2b9xA-14" value="Навигационные&lt;div&gt;сервисы&lt;/div&gt;" style="edgeLabel;html=1;align=center;verticalAlign=middle;resizable=0;points=[];" connectable="0" vertex="1" parent="ztMUQmSmxL0yscb2b9xA-13">
          <mxGeometry x="0.2402" y="4" relative="1" as="geometry">
            <mxPoint x="13" y="-4" as="offset" />
          </mxGeometry>
        </mxCell>
        <mxCell id="ztMUQmSmxL0yscb2b9xA-15" value="Модуль&lt;div&gt;навигационных&lt;br&gt;&lt;div&gt;сервисов&lt;/div&gt;&lt;/div&gt;" style="rounded=0;whiteSpace=wrap;html=1;movable=1;resizable=1;rotatable=1;deletable=1;editable=1;locked=0;connectable=1;fontStyle=1;container=0;" vertex="1" parent="1">
          <mxGeometry x="3758.1369565217387" y="5251.002631578947" width="125.21739130434783" height="61.578947368421055" as="geometry" />
        </mxCell>
        <mxCell id="ztMUQmSmxL0yscb2b9xA-16" value="" style="edgeStyle=orthogonalEdgeStyle;rounded=0;orthogonalLoop=1;jettySize=auto;html=1;" edge="1" parent="1" source="ztMUQmSmxL0yscb2b9xA-17" target="ztMUQmSmxL0yscb2b9xA-5">
          <mxGeometry relative="1" as="geometry" />
        </mxCell>
        <mxCell id="ztMUQmSmxL0yscb2b9xA-17" value="Модуль&amp;nbsp;&lt;div&gt;хранения&amp;nbsp;&lt;/div&gt;&lt;div&gt;данных&lt;/div&gt;" style="rounded=0;whiteSpace=wrap;html=1;movable=1;resizable=1;rotatable=1;deletable=1;editable=1;locked=0;connectable=1;fontStyle=1;container=0;" vertex="1" parent="1">
          <mxGeometry x="3505.5269565217386" y="5411.002631578947" width="125.21739130434783" height="61.578947368421055" as="geometry" />
        </mxCell>
        <mxCell id="ztMUQmSmxL0yscb2b9xA-21" value="" style="group" connectable="0" vertex="1" parent="1">
          <mxGeometry x="2919.14" y="4656" width="411.74" height="300" as="geometry" />
        </mxCell>
        <mxCell id="ztMUQmSmxL0yscb2b9xA-22" value="" style="rounded=0;whiteSpace=wrap;html=1;movable=1;resizable=1;rotatable=1;deletable=1;editable=1;locked=0;connectable=1;container=0;" vertex="1" parent="ztMUQmSmxL0yscb2b9xA-21">
          <mxGeometry y="50" width="411.74" height="250" as="geometry" />
        </mxCell>
        <mxCell id="ztMUQmSmxL0yscb2b9xA-23" value="&lt;span style=&quot;font-size: 20px; font-weight: normal;&quot;&gt;Мобильный робот&lt;/span&gt;" style="text;html=1;align=center;verticalAlign=middle;whiteSpace=wrap;rounded=0;movable=1;resizable=1;rotatable=1;deletable=1;editable=1;locked=0;connectable=1;fontStyle=1" vertex="1" parent="ztMUQmSmxL0yscb2b9xA-21">
          <mxGeometry x="115.87000000000012" y="40" width="180" height="90" as="geometry" />
        </mxCell>
        <mxCell id="ztMUQmSmxL0yscb2b9xA-24" value="LIDAR" style="rounded=0;whiteSpace=wrap;html=1;movable=1;resizable=1;rotatable=1;deletable=1;editable=1;locked=0;connectable=1;fontStyle=1;container=0;" vertex="1" parent="ztMUQmSmxL0yscb2b9xA-21">
          <mxGeometry x="7.609130434782628" y="227.8947368421052" width="125.21739130434783" height="61.578947368421055" as="geometry" />
        </mxCell>
        <mxCell id="ztMUQmSmxL0yscb2b9xA-25" value="Инерциальный измерительный блок" style="rounded=0;whiteSpace=wrap;html=1;movable=1;resizable=1;rotatable=1;deletable=1;editable=1;locked=0;connectable=1;fontStyle=1;container=0;" vertex="1" parent="ztMUQmSmxL0yscb2b9xA-21">
          <mxGeometry x="143.26130434782613" y="227.8947368421052" width="125.21739130434783" height="61.578947368421055" as="geometry" />
        </mxCell>
        <mxCell id="ztMUQmSmxL0yscb2b9xA-26" value="Датчик столкновения" style="rounded=0;whiteSpace=wrap;html=1;movable=1;resizable=1;rotatable=1;deletable=1;editable=1;locked=0;connectable=1;fontStyle=1;container=0;" vertex="1" parent="ztMUQmSmxL0yscb2b9xA-21">
          <mxGeometry x="278.9134782608696" y="227.8947368421052" width="125.21739130434783" height="61.578947368421055" as="geometry" />
        </mxCell>
        <mxCell id="ztMUQmSmxL0yscb2b9xA-27" value="Контроллер робота" style="rounded=0;whiteSpace=wrap;html=1;movable=1;resizable=1;rotatable=1;deletable=1;editable=1;locked=0;connectable=1;fontStyle=1;container=0;" vertex="1" parent="ztMUQmSmxL0yscb2b9xA-21">
          <mxGeometry x="143.99695652173915" y="157.0026315789474" width="125.21739130434783" height="61.578947368421055" as="geometry" />
        </mxCell>
        <mxCell id="ztMUQmSmxL0yscb2b9xA-28" value="" style="group" connectable="0" vertex="1" parent="1">
          <mxGeometry x="3742.14" y="4705" width="300" height="255" as="geometry" />
        </mxCell>
        <mxCell id="ztMUQmSmxL0yscb2b9xA-29" style="edgeStyle=orthogonalEdgeStyle;rounded=0;orthogonalLoop=1;jettySize=auto;html=1;exitX=0;exitY=0.75;exitDx=0;exitDy=0;entryX=-0.005;entryY=0.842;entryDx=0;entryDy=0;entryPerimeter=0;" edge="1" parent="ztMUQmSmxL0yscb2b9xA-28" target="ztMUQmSmxL0yscb2b9xA-30">
          <mxGeometry relative="1" as="geometry">
            <mxPoint x="-30" y="191" as="targetPoint" />
            <mxPoint x="-334.99997965494777" y="126.333348592123" as="sourcePoint" />
            <Array as="points">
              <mxPoint x="-337" y="126" />
              <mxPoint x="-337" y="215" />
            </Array>
          </mxGeometry>
        </mxCell>
        <mxCell id="ztMUQmSmxL0yscb2b9xA-30" value="" style="rounded=0;whiteSpace=wrap;html=1;container=0;" vertex="1" parent="ztMUQmSmxL0yscb2b9xA-28">
          <mxGeometry width="300" height="255" as="geometry" />
        </mxCell>
        <mxCell id="ztMUQmSmxL0yscb2b9xA-31" value="&lt;span style=&quot;font-weight: normal;&quot;&gt;Система навигации&lt;/span&gt;" style="text;html=1;align=center;verticalAlign=middle;whiteSpace=wrap;rounded=0;fontSize=20;fontStyle=1;container=0;" vertex="1" parent="ztMUQmSmxL0yscb2b9xA-28">
          <mxGeometry x="104.70684039087973" y="9.997948717948702" width="90.58631921824103" height="34.871794871794876" as="geometry" />
        </mxCell>
        <mxCell id="ztMUQmSmxL0yscb2b9xA-32" value="Сервер&lt;div&gt;планирования&lt;/div&gt;" style="rounded=0;whiteSpace=wrap;html=1;movable=1;resizable=1;rotatable=1;deletable=1;editable=1;locked=0;connectable=1;fontStyle=1;container=0;" vertex="1" parent="ztMUQmSmxL0yscb2b9xA-28">
          <mxGeometry x="12.386956521739194" y="165.00263157894744" width="125.21739130434783" height="61.578947368421055" as="geometry" />
        </mxCell>
        <mxCell id="ztMUQmSmxL0yscb2b9xA-33" value="Сервер&lt;div&gt;управления&lt;/div&gt;" style="rounded=0;whiteSpace=wrap;html=1;movable=1;resizable=1;rotatable=1;deletable=1;editable=1;locked=0;connectable=1;fontStyle=1;container=0;" vertex="1" parent="ztMUQmSmxL0yscb2b9xA-28">
          <mxGeometry x="162.3869565217392" y="165.00263157894733" width="125.21739130434783" height="61.578947368421055" as="geometry" />
        </mxCell>
        <mxCell id="ztMUQmSmxL0yscb2b9xA-34" value="Сервер&lt;div&gt;навигации&lt;/div&gt;" style="rounded=0;whiteSpace=wrap;html=1;movable=1;resizable=1;rotatable=1;deletable=1;editable=1;locked=0;connectable=1;fontStyle=1;container=0;" vertex="1" parent="ztMUQmSmxL0yscb2b9xA-28">
          <mxGeometry x="87.3869565217392" y="85.00263157894733" width="125.21739130434783" height="61.578947368421055" as="geometry" />
        </mxCell>
        <mxCell id="ztMUQmSmxL0yscb2b9xA-38" value="" style="group" connectable="0" vertex="1" parent="1">
          <mxGeometry x="3468.14" y="4765" width="170" height="120" as="geometry" />
        </mxCell>
        <mxCell id="ztMUQmSmxL0yscb2b9xA-39" value="&lt;div&gt;&lt;br&gt;&lt;/div&gt;" style="rounded=0;whiteSpace=wrap;html=1;fontStyle=1" vertex="1" parent="ztMUQmSmxL0yscb2b9xA-38">
          <mxGeometry width="170" height="120" as="geometry" />
        </mxCell>
        <mxCell id="ztMUQmSmxL0yscb2b9xA-40" value="&lt;font style=&quot;font-size: 20px;&quot;&gt;Модуль локализации&lt;/font&gt;" style="text;html=1;align=center;verticalAlign=middle;whiteSpace=wrap;rounded=0;" vertex="1" parent="ztMUQmSmxL0yscb2b9xA-38">
          <mxGeometry x="55" y="45" width="60" height="30" as="geometry" />
        </mxCell>
        <mxCell id="ztMUQmSmxL0yscb2b9xA-41" style="edgeStyle=orthogonalEdgeStyle;rounded=0;orthogonalLoop=1;jettySize=auto;html=1;exitX=1;exitY=0.5;exitDx=0;exitDy=0;entryX=-0.005;entryY=0.547;entryDx=0;entryDy=0;entryPerimeter=0;" edge="1" parent="1" source="ztMUQmSmxL0yscb2b9xA-22" target="ztMUQmSmxL0yscb2b9xA-39">
          <mxGeometry relative="1" as="geometry" />
        </mxCell>
        <mxCell id="ztMUQmSmxL0yscb2b9xA-42" value="Данные&lt;div&gt;датчиков&lt;/div&gt;" style="edgeLabel;html=1;align=center;verticalAlign=middle;resizable=0;points=[];" connectable="0" vertex="1" parent="ztMUQmSmxL0yscb2b9xA-41">
          <mxGeometry x="0.2201" relative="1" as="geometry">
            <mxPoint x="-49" y="-1" as="offset" />
          </mxGeometry>
        </mxCell>
        <mxCell id="ztMUQmSmxL0yscb2b9xA-43" style="edgeStyle=orthogonalEdgeStyle;rounded=0;orthogonalLoop=1;jettySize=auto;html=1;entryX=0.5;entryY=0;entryDx=0;entryDy=0;" edge="1" parent="1" target="ztMUQmSmxL0yscb2b9xA-39">
          <mxGeometry relative="1" as="geometry">
            <mxPoint x="3553" y="4680" as="sourcePoint" />
          </mxGeometry>
        </mxCell>
        <mxCell id="ztMUQmSmxL0yscb2b9xA-44" style="edgeStyle=orthogonalEdgeStyle;rounded=0;orthogonalLoop=1;jettySize=auto;html=1;entryX=-0.002;entryY=0.126;entryDx=0;entryDy=0;entryPerimeter=0;" edge="1" parent="1" target="ztMUQmSmxL0yscb2b9xA-30">
          <mxGeometry relative="1" as="geometry">
            <mxPoint x="3580" y="4660" as="sourcePoint" />
          </mxGeometry>
        </mxCell>
        <mxCell id="ztMUQmSmxL0yscb2b9xA-45" style="edgeStyle=orthogonalEdgeStyle;rounded=0;orthogonalLoop=1;jettySize=auto;html=1;exitX=1;exitY=0.5;exitDx=0;exitDy=0;entryX=-0.002;entryY=0.468;entryDx=0;entryDy=0;entryPerimeter=0;" edge="1" parent="1" source="ztMUQmSmxL0yscb2b9xA-39" target="ztMUQmSmxL0yscb2b9xA-30">
          <mxGeometry relative="1" as="geometry" />
        </mxCell>
        <mxCell id="ztMUQmSmxL0yscb2b9xA-46" value="Положение&lt;div&gt;робота&lt;/div&gt;" style="edgeLabel;html=1;align=center;verticalAlign=middle;resizable=0;points=[];" connectable="0" vertex="1" parent="ztMUQmSmxL0yscb2b9xA-45">
          <mxGeometry x="-0.0437" y="-1" relative="1" as="geometry">
            <mxPoint as="offset" />
          </mxGeometry>
        </mxCell>
        <mxCell id="ztMUQmSmxL0yscb2b9xA-51" style="edgeStyle=orthogonalEdgeStyle;rounded=0;orthogonalLoop=1;jettySize=auto;html=1;exitX=0.25;exitY=1;exitDx=0;exitDy=0;entryX=1;entryY=0.25;entryDx=0;entryDy=0;" edge="1" parent="1" source="ztMUQmSmxL0yscb2b9xA-30" target="ztMUQmSmxL0yscb2b9xA-12">
          <mxGeometry relative="1" as="geometry">
            <Array as="points">
              <mxPoint x="3870.14" y="4960" />
              <mxPoint x="3870.14" y="5146" />
            </Array>
          </mxGeometry>
        </mxCell>
        <mxCell id="ztMUQmSmxL0yscb2b9xA-52" value="Сигнал&lt;div&gt;управления&lt;/div&gt;" style="edgeLabel;html=1;align=center;verticalAlign=middle;resizable=0;points=[];" connectable="0" vertex="1" parent="ztMUQmSmxL0yscb2b9xA-51">
          <mxGeometry x="0.0105" y="-1" relative="1" as="geometry">
            <mxPoint y="-153" as="offset" />
          </mxGeometry>
        </mxCell>
        <mxCell id="ztMUQmSmxL0yscb2b9xA-53" value="Карты&lt;div&gt;Сигналы управления&lt;/div&gt;&lt;div&gt;Данные датчиков&lt;/div&gt;&lt;div&gt;Положение робота&lt;/div&gt;" style="edgeLabel;html=1;align=center;verticalAlign=middle;resizable=0;points=[];" connectable="0" vertex="1" parent="1">
          <mxGeometry x="3574.135652173913" y="5360.004984520124" as="geometry">
            <mxPoint x="-8" y="4" as="offset" />
          </mxGeometry>
        </mxCell>
        <mxCell id="ztMUQmSmxL0yscb2b9xA-54" value="Сигнал&lt;div&gt;управления&lt;/div&gt;" style="edgeLabel;html=1;align=center;verticalAlign=middle;resizable=0;points=[];" connectable="0" vertex="1" parent="1">
          <mxGeometry x="3628.1365478287653" y="5005.001623868408" as="geometry">
            <mxPoint x="-506" y="-13" as="offset" />
          </mxGeometry>
        </mxCell>
        <mxCell id="ztMUQmSmxL0yscb2b9xA-55" style="edgeStyle=orthogonalEdgeStyle;rounded=0;orthogonalLoop=1;jettySize=auto;html=1;exitX=0.5;exitY=1;exitDx=0;exitDy=0;entryX=0.5;entryY=0;entryDx=0;entryDy=0;" edge="1" parent="1" source="ztMUQmSmxL0yscb2b9xA-39" target="ztMUQmSmxL0yscb2b9xA-15">
          <mxGeometry relative="1" as="geometry">
            <Array as="points">
              <mxPoint x="3553.14" y="5028" />
              <mxPoint x="3821.14" y="5028" />
            </Array>
          </mxGeometry>
        </mxCell>
        <mxCell id="ztMUQmSmxL0yscb2b9xA-56" value="Положение&lt;div&gt;робота&lt;/div&gt;" style="edgeLabel;html=1;align=center;verticalAlign=middle;resizable=0;points=[];" connectable="0" vertex="1" parent="1">
          <mxGeometry x="3671.141764705882" y="4825.000000000001" as="geometry">
            <mxPoint x="-119" y="125" as="offset" />
          </mxGeometry>
        </mxCell>
        <mxCell id="ztMUQmSmxL0yscb2b9xA-57" style="edgeStyle=orthogonalEdgeStyle;rounded=0;orthogonalLoop=1;jettySize=auto;html=1;exitX=0.75;exitY=1;exitDx=0;exitDy=0;entryX=1;entryY=0.5;entryDx=0;entryDy=0;" edge="1" parent="1" source="ztMUQmSmxL0yscb2b9xA-39" target="ztMUQmSmxL0yscb2b9xA-17">
          <mxGeometry relative="1" as="geometry">
            <Array as="points">
              <mxPoint x="3596.14" y="5018" />
              <mxPoint x="4054.14" y="5018" />
              <mxPoint x="4054.14" y="5442" />
            </Array>
          </mxGeometry>
        </mxCell>
        <mxCell id="ztMUQmSmxL0yscb2b9xA-58" value="Положение&lt;div&gt;робота&lt;/div&gt;" style="edgeLabel;html=1;align=center;verticalAlign=middle;resizable=0;points=[];" connectable="0" vertex="1" parent="1">
          <mxGeometry x="3712.141764705882" y="4862.000000000001" as="geometry">
            <mxPoint x="-119" y="125" as="offset" />
          </mxGeometry>
        </mxCell>
        <mxCell id="ztMUQmSmxL0yscb2b9xA-59" style="edgeStyle=orthogonalEdgeStyle;rounded=0;orthogonalLoop=1;jettySize=auto;html=1;exitX=0.75;exitY=1;exitDx=0;exitDy=0;entryX=1;entryY=0.5;entryDx=0;entryDy=0;" edge="1" parent="1" source="ztMUQmSmxL0yscb2b9xA-30" target="ztMUQmSmxL0yscb2b9xA-15">
          <mxGeometry relative="1" as="geometry" />
        </mxCell>
        <mxCell id="ztMUQmSmxL0yscb2b9xA-60" value="Данные&lt;div&gt;о навигации&lt;/div&gt;" style="edgeLabel;html=1;align=center;verticalAlign=middle;resizable=0;points=[];" connectable="0" vertex="1" parent="ztMUQmSmxL0yscb2b9xA-59">
          <mxGeometry x="-0.8587" relative="1" as="geometry">
            <mxPoint as="offset" />
          </mxGeometry>
        </mxCell>
        <mxCell id="ztMUQmSmxL0yscb2b9xA-61" style="edgeStyle=orthogonalEdgeStyle;rounded=0;orthogonalLoop=1;jettySize=auto;html=1;exitX=0.75;exitY=1;exitDx=0;exitDy=0;entryX=0;entryY=0.5;entryDx=0;entryDy=0;" edge="1" parent="1" source="ztMUQmSmxL0yscb2b9xA-22" target="ztMUQmSmxL0yscb2b9xA-8">
          <mxGeometry relative="1" as="geometry" />
        </mxCell>
        <mxCell id="ztMUQmSmxL0yscb2b9xA-62" value="Данные&lt;div&gt;датчиков&lt;/div&gt;" style="edgeLabel;html=1;align=center;verticalAlign=middle;resizable=0;points=[];" connectable="0" vertex="1" parent="1">
          <mxGeometry x="3226.1364705092997" y="4988.995542513156" as="geometry" />
        </mxCell>
        <mxCell id="ztMUQmSmxL0yscb2b9xA-63" style="edgeStyle=orthogonalEdgeStyle;rounded=0;orthogonalLoop=1;jettySize=auto;html=1;exitX=0.25;exitY=1;exitDx=0;exitDy=0;entryX=0;entryY=0.25;entryDx=0;entryDy=0;" edge="1" parent="1" source="ztMUQmSmxL0yscb2b9xA-22" target="ztMUQmSmxL0yscb2b9xA-17">
          <mxGeometry relative="1" as="geometry" />
        </mxCell>
        <mxCell id="ztMUQmSmxL0yscb2b9xA-64" value="Данные&lt;div&gt;датчиков&lt;/div&gt;" style="edgeLabel;html=1;align=center;verticalAlign=middle;resizable=0;points=[];" connectable="0" vertex="1" parent="1">
          <mxGeometry x="3019.1364705092997" y="4985.995542513156" as="geometry" />
        </mxCell>
        <mxCell id="ztMUQmSmxL0yscb2b9xA-65" style="edgeStyle=orthogonalEdgeStyle;rounded=0;orthogonalLoop=1;jettySize=auto;html=1;entryX=0;entryY=0.5;entryDx=0;entryDy=0;" edge="1" parent="1" target="ztMUQmSmxL0yscb2b9xA-17">
          <mxGeometry relative="1" as="geometry">
            <Array as="points">
              <mxPoint x="2900" y="4660" />
              <mxPoint x="2900" y="5442" />
            </Array>
            <mxPoint x="3530" y="4660" as="sourcePoint" />
          </mxGeometry>
        </mxCell>
        <mxCell id="ztMUQmSmxL0yscb2b9xA-66" value="Карта&lt;div&gt;местности&lt;/div&gt;" style="edgeLabel;html=1;align=center;verticalAlign=middle;resizable=0;points=[];" connectable="0" vertex="1" parent="1">
          <mxGeometry x="3559.999391287984" y="4655.998020613823" as="geometry">
            <mxPoint x="-6" y="2" as="offset" />
          </mxGeometry>
        </mxCell>
        <mxCell id="ztMUQmSmxL0yscb2b9xA-67" style="edgeStyle=orthogonalEdgeStyle;rounded=0;orthogonalLoop=1;jettySize=auto;html=1;entryX=0.75;entryY=0;entryDx=0;entryDy=0;" edge="1" parent="1">
          <mxGeometry relative="1" as="geometry">
            <mxPoint x="4010.56" y="4705" as="targetPoint" />
            <mxPoint x="4010" y="4660" as="sourcePoint" />
          </mxGeometry>
        </mxCell>
        <mxCell id="ztMUQmSmxL0yscb2b9xA-68" value="Цель&lt;br&gt;навигации" style="edgeLabel;html=1;align=center;verticalAlign=middle;resizable=0;points=[];" connectable="0" vertex="1" parent="ztMUQmSmxL0yscb2b9xA-67">
          <mxGeometry x="-0.6947" y="-1" relative="1" as="geometry">
            <mxPoint x="1" y="-11" as="offset" />
          </mxGeometry>
        </mxCell>
        <mxCell id="ztMUQmSmxL0yscb2b9xA-69" value="" style="rounded=0;whiteSpace=wrap;html=1;fillColor=none;dashed=1;dashPattern=12 12;" vertex="1" parent="1">
          <mxGeometry x="4160" y="4676" width="342.39" height="432.5" as="geometry" />
        </mxCell>
        <mxCell id="ztMUQmSmxL0yscb2b9xA-70" style="edgeStyle=orthogonalEdgeStyle;rounded=0;orthogonalLoop=1;jettySize=auto;html=1;exitX=0.5;exitY=1;exitDx=0;exitDy=0;entryX=0.5;entryY=0;entryDx=0;entryDy=0;" edge="1" parent="1" source="ztMUQmSmxL0yscb2b9xA-72" target="ztMUQmSmxL0yscb2b9xA-75">
          <mxGeometry relative="1" as="geometry" />
        </mxCell>
        <mxCell id="ztMUQmSmxL0yscb2b9xA-71" value="Обнаруженные&lt;div&gt;динамические объекты&lt;/div&gt;" style="edgeLabel;html=1;align=center;verticalAlign=middle;resizable=0;points=[];" connectable="0" vertex="1" parent="ztMUQmSmxL0yscb2b9xA-70">
          <mxGeometry x="-0.0109" y="1" relative="1" as="geometry">
            <mxPoint x="-1" y="-6" as="offset" />
          </mxGeometry>
        </mxCell>
        <mxCell id="ztMUQmSmxL0yscb2b9xA-72" value="Модуль обнаружения" style="rounded=0;whiteSpace=wrap;html=1;movable=1;resizable=1;rotatable=1;deletable=1;editable=1;locked=0;connectable=1;fontStyle=1;container=0;" vertex="1" parent="1">
          <mxGeometry x="4272.386956521739" y="4763.172631578947" width="125.21739130434783" height="61.578947368421055" as="geometry" />
        </mxCell>
        <mxCell id="ztMUQmSmxL0yscb2b9xA-73" style="edgeStyle=orthogonalEdgeStyle;rounded=0;orthogonalLoop=1;jettySize=auto;html=1;exitX=0.5;exitY=1;exitDx=0;exitDy=0;entryX=0.5;entryY=0;entryDx=0;entryDy=0;" edge="1" parent="1" source="ztMUQmSmxL0yscb2b9xA-75" target="ztMUQmSmxL0yscb2b9xA-78">
          <mxGeometry relative="1" as="geometry" />
        </mxCell>
        <mxCell id="ztMUQmSmxL0yscb2b9xA-74" value="Отслеживаемые&lt;div&gt;динамические объекты&lt;/div&gt;" style="edgeLabel;html=1;align=center;verticalAlign=middle;resizable=0;points=[];" connectable="0" vertex="1" parent="ztMUQmSmxL0yscb2b9xA-73">
          <mxGeometry x="-0.054" y="1" relative="1" as="geometry">
            <mxPoint as="offset" />
          </mxGeometry>
        </mxCell>
        <mxCell id="ztMUQmSmxL0yscb2b9xA-75" value="Модуль слежения и оценки" style="rounded=0;whiteSpace=wrap;html=1;movable=1;resizable=1;rotatable=1;deletable=1;editable=1;locked=0;connectable=1;fontStyle=1;container=0;" vertex="1" parent="1">
          <mxGeometry x="4272.386956521739" y="4890.462631578947" width="125.21739130434783" height="61.578947368421055" as="geometry" />
        </mxCell>
        <mxCell id="ztMUQmSmxL0yscb2b9xA-76" style="edgeStyle=orthogonalEdgeStyle;rounded=0;orthogonalLoop=1;jettySize=auto;html=1;exitX=0;exitY=0.5;exitDx=0;exitDy=0;entryX=1;entryY=0.75;entryDx=0;entryDy=0;" edge="1" parent="1" source="ztMUQmSmxL0yscb2b9xA-78">
          <mxGeometry relative="1" as="geometry">
            <Array as="points">
              <mxPoint x="4134" y="5053" />
              <mxPoint x="4134" y="4902" />
            </Array>
            <mxPoint x="4042.14" y="4901.75" as="targetPoint" />
          </mxGeometry>
        </mxCell>
        <mxCell id="ztMUQmSmxL0yscb2b9xA-77" value="Слой для&lt;div&gt;карты&lt;/div&gt;&lt;div&gt;стоимости&lt;/div&gt;" style="edgeLabel;html=1;align=center;verticalAlign=middle;resizable=0;points=[];" connectable="0" vertex="1" parent="ztMUQmSmxL0yscb2b9xA-76">
          <mxGeometry x="0.5467" relative="1" as="geometry">
            <mxPoint x="-38" y="-1" as="offset" />
          </mxGeometry>
        </mxCell>
        <mxCell id="ztMUQmSmxL0yscb2b9xA-78" value="Модуль отображения" style="rounded=0;whiteSpace=wrap;html=1;movable=1;resizable=1;rotatable=1;deletable=1;editable=1;locked=0;connectable=1;fontStyle=1;container=0;" vertex="1" parent="1">
          <mxGeometry x="4272.386956521739" y="5022.252631578947" width="125.21739130434783" height="61.578947368421055" as="geometry" />
        </mxCell>
        <mxCell id="ztMUQmSmxL0yscb2b9xA-79" value="&lt;font style=&quot;font-size: 20px;&quot;&gt;Система учета динамических объектов&lt;/font&gt;" style="text;html=1;align=center;verticalAlign=middle;whiteSpace=wrap;rounded=0;" vertex="1" parent="1">
          <mxGeometry x="4201.050000000001" y="4688.5" width="267.89" height="40" as="geometry" />
        </mxCell>
        <mxCell id="ztMUQmSmxL0yscb2b9xA-80" style="edgeStyle=orthogonalEdgeStyle;rounded=0;orthogonalLoop=1;jettySize=auto;html=1;exitX=1;exitY=0.25;exitDx=0;exitDy=0;entryX=0;entryY=0.5;entryDx=0;entryDy=0;" edge="1" parent="1" target="ztMUQmSmxL0yscb2b9xA-72">
          <mxGeometry relative="1" as="geometry">
            <Array as="points">
              <mxPoint x="4131" y="4775" />
              <mxPoint x="4131" y="4794" />
            </Array>
            <mxPoint x="4042.14" y="4774.75" as="sourcePoint" />
          </mxGeometry>
        </mxCell>
        <mxCell id="ztMUQmSmxL0yscb2b9xA-81" value="Карта&lt;div&gt;стоимости&lt;/div&gt;" style="edgeLabel;html=1;align=center;verticalAlign=middle;resizable=0;points=[];" connectable="0" vertex="1" parent="ztMUQmSmxL0yscb2b9xA-80">
          <mxGeometry x="-0.5246" y="1" relative="1" as="geometry">
            <mxPoint x="-17" as="offset" />
          </mxGeometry>
        </mxCell>
      </root>
    </mxGraphModel>
  </diagram>
</mxfile>
